<mxfile host="app.diagrams.net" modified="2024-06-25T13:47:49.399Z" agent="Mozilla/5.0 (Macintosh; Intel Mac OS X 10.15; rv:126.0) Gecko/20100101 Firefox/126.0" version="24.6.2" etag="QxEAo11l_y0ZKDM7IM7c" type="github">
  <diagram name="Page-1" id="WvCYRrLpy7zEICXKXfyW">
    <mxGraphModel>
      <root>
        <mxCell id="0" />
        <mxCell id="1" parent="0" />
      </root>
    </mxGraphModel>
  </diagram>
</mxfile>
